<svg xmlns="http://www.w3.org/2000/svg" width="447.30000000000007" height="35" viewBox="0 0 447.30000000000007 35"><rect class="svg__rect" x="0" y="0" width="94.22" height="35" fill="#31C4F3"/><rect class="svg__rect" x="92.22" y="0" width="355.08000000000004" height="35" fill="#389AD5"/><path class="svg__text" d="M15.60 22L13.63 13.47L15.10 13.47L16.43 19.88L18.06 13.47L19.30 13.47L20.91 19.89L22.22 13.47L23.69 13.47L21.72 22L20.31 22L18.68 15.77L17.02 22L15.60 22ZM33.34 22L27.76 22L27.76 13.47L33.30 13.47L33.30 14.66L29.25 14.66L29.25 17.02L32.75 17.02L32.75 18.19L29.25 18.19L29.25 20.82L33.34 20.82L33.34 22ZM40.65 22L37.54 22L37.54 13.47L40.46 13.47Q41.91 13.47 42.66 14.05Q43.42 14.63 43.42 15.78L43.42 15.78Q43.42 16.36 43.10 16.83Q42.79 17.30 42.18 17.56L42.18 17.56Q42.87 17.75 43.25 18.26Q43.63 18.78 43.63 19.51L43.63 19.51Q43.63 20.71 42.85 21.36Q42.08 22 40.65 22L40.65 22ZM39.02 18.15L39.02 20.82L40.67 20.82Q41.36 20.82 41.76 20.47Q42.15 20.13 42.15 19.51L42.15 19.51Q42.15 18.18 40.79 18.15L40.79 18.15L39.02 18.15ZM39.02 14.66L39.02 17.06L40.47 17.06Q41.16 17.06 41.55 16.75Q41.94 16.43 41.94 15.86L41.94 15.86Q41.94 15.23 41.58 14.95Q41.22 14.66 40.46 14.66L40.46 14.66L39.02 14.66ZM47.66 19.42L47.66 19.42L49.14 19.42Q49.14 20.15 49.63 20.55Q50.11 20.95 51.00 20.95L51.00 20.95Q51.78 20.95 52.17 20.63Q52.56 20.32 52.56 19.80L52.56 19.80Q52.56 19.24 52.16 18.94Q51.76 18.63 50.73 18.32Q49.70 18.01 49.09 17.63L49.09 17.63Q47.93 16.90 47.93 15.72L47.93 15.72Q47.93 14.69 48.77 14.02Q49.61 13.35 50.95 13.35L50.95 13.35Q51.84 13.35 52.54 13.68Q53.23 14.01 53.63 14.61Q54.03 15.22 54.03 15.96L54.03 15.96L52.56 15.96Q52.56 15.29 52.14 14.91Q51.72 14.54 50.94 14.54L50.94 14.54Q50.21 14.54 49.81 14.85Q49.41 15.16 49.41 15.71L49.41 15.71Q49.41 16.18 49.84 16.50Q50.28 16.81 51.27 17.10Q52.27 17.40 52.87 17.78Q53.48 18.16 53.76 18.65Q54.04 19.13 54.04 19.79L54.04 19.79Q54.04 20.86 53.22 21.49Q52.40 22.12 51.00 22.12L51.00 22.12Q50.08 22.12 49.30 21.77Q48.52 21.43 48.09 20.83Q47.66 20.22 47.66 19.42ZM59.89 22L58.41 22L58.41 13.47L59.89 13.47L59.89 22ZM66.38 14.66L63.75 14.66L63.75 13.47L70.51 13.47L70.51 14.66L67.85 14.66L67.85 22L66.38 22L66.38 14.66ZM79.85 22L74.27 22L74.27 13.47L79.81 13.47L79.81 14.66L75.75 14.66L75.75 17.02L79.26 17.02L79.26 18.19L75.75 18.19L75.75 20.82L79.85 20.82L79.85 22Z" fill="#FFFFFF"/><path class="svg__text" d="M108.79 22L106.41 22L106.41 13.60L108.79 13.60L108.79 16.76L112.03 16.76L112.03 13.60L114.40 13.60L114.40 22L112.03 22L112.03 18.72L108.79 18.72L108.79 22ZM121.36 15.48L118.77 15.48L118.77 13.60L126.29 13.60L126.29 15.48L123.73 15.48L123.73 22L121.36 22L121.36 15.48ZM132.46 15.48L129.87 15.48L129.87 13.60L137.40 13.60L137.40 15.48L134.83 15.48L134.83 22L132.46 22L132.46 15.48ZM144.15 22L141.77 22L141.77 13.60L145.61 13.60Q146.75 13.60 147.59 13.98Q148.43 14.35 148.89 15.06Q149.35 15.76 149.35 16.71L149.35 16.71Q149.35 17.66 148.89 18.35Q148.43 19.05 147.59 19.42Q146.75 19.80 145.61 19.80L145.61 19.80L144.15 19.80L144.15 22ZM144.15 15.47L144.15 17.93L145.47 17.93Q146.20 17.93 146.57 17.61Q146.94 17.29 146.94 16.71L146.94 16.71Q146.94 16.12 146.57 15.80Q146.20 15.47 145.47 15.47L145.47 15.47L144.15 15.47ZM153.51 21.24L153.51 21.24L154.29 19.49Q154.85 19.86 155.60 20.09Q156.34 20.32 157.06 20.32L157.06 20.32Q158.43 20.32 158.43 19.64L158.43 19.64Q158.43 19.28 158.04 19.11Q157.65 18.93 156.79 18.74L156.79 18.74Q155.84 18.53 155.20 18.30Q154.57 18.06 154.11 17.55Q153.66 17.03 153.66 16.16L153.66 16.16Q153.66 15.39 154.08 14.77Q154.50 14.15 155.33 13.79Q156.17 13.43 157.37 13.43L157.37 13.43Q158.20 13.43 159.00 13.62Q159.81 13.80 160.43 14.17L160.43 14.17L159.69 15.93Q158.49 15.28 157.36 15.28L157.36 15.28Q156.65 15.28 156.33 15.49Q156.01 15.70 156.01 16.04L156.01 16.04Q156.01 16.37 156.39 16.54Q156.78 16.71 157.62 16.89L157.62 16.89Q158.59 17.10 159.22 17.33Q159.85 17.56 160.31 18.07Q160.77 18.58 160.77 19.46L160.77 19.46Q160.77 20.21 160.35 20.83Q159.93 21.44 159.09 21.80Q158.25 22.17 157.05 22.17L157.05 22.17Q156.03 22.17 155.07 21.92Q154.11 21.67 153.51 21.24ZM164.83 20.75L164.83 20.75Q164.83 20.15 165.22 19.78Q165.61 19.41 166.20 19.41L166.20 19.41Q166.80 19.41 167.18 19.78Q167.57 20.15 167.57 20.75L167.57 20.75Q167.57 21.34 167.18 21.72Q166.79 22.11 166.20 22.11L166.20 22.11Q165.62 22.11 165.23 21.72Q164.83 21.34 164.83 20.75ZM164.83 16.73L164.83 16.73Q164.83 16.13 165.22 15.76Q165.61 15.39 166.20 15.39L166.20 15.39Q166.80 15.39 167.18 15.76Q167.57 16.13 167.57 16.73L167.57 16.73Q167.57 17.32 167.18 17.70Q166.79 18.09 166.20 18.09L166.20 18.09Q165.62 18.09 165.23 17.70Q164.83 17.32 164.83 16.73ZM172.97 23.20L170.94 23.20L174.90 11.90L176.93 11.90L172.97 23.20ZM181.43 23.20L179.40 23.20L183.36 11.90L185.39 11.90L181.43 23.20ZM191.23 22L188.50 13.60L190.95 13.60L192.64 18.96L194.42 13.60L196.60 13.60L198.29 19.01L200.06 13.60L202.33 13.60L199.60 22L197.06 22L195.45 16.89L193.77 22L191.23 22ZM208.92 22L206.19 13.60L208.64 13.60L210.33 18.96L212.11 13.60L214.29 13.60L215.98 19.01L217.75 13.60L220.02 13.60L217.29 22L214.75 22L213.14 16.89L211.46 22L208.92 22ZM226.61 22L223.88 13.60L226.33 13.60L228.02 18.96L229.79 13.60L231.98 13.60L233.67 19.01L235.44 13.60L237.70 13.60L234.98 22L232.44 22L230.83 16.89L229.15 22L226.61 22ZM241.70 20.75L241.70 20.75Q241.70 20.15 242.09 19.78Q242.48 19.41 243.07 19.41L243.07 19.41Q243.67 19.41 244.05 19.78Q244.44 20.15 244.44 20.75L244.44 20.75Q244.44 21.34 244.05 21.72Q243.66 22.11 243.07 22.11L243.07 22.11Q242.49 22.11 242.10 21.72Q241.70 21.34 241.70 20.75ZM251.68 22L248.09 13.60L250.66 13.60L252.94 19.07L255.27 13.60L257.61 13.60L254.02 22L251.68 22ZM264.15 22L261.77 22L261.77 13.60L264.15 13.60L264.15 22ZM271.70 22L269.32 22L269.32 13.60L273.17 13.60Q274.30 13.60 275.14 13.98Q275.98 14.35 276.44 15.06Q276.90 15.76 276.90 16.71L276.90 16.71Q276.90 17.66 276.44 18.35Q275.98 19.05 275.14 19.42Q274.30 19.80 273.17 19.80L273.17 19.80L271.70 19.80L271.70 22ZM271.70 15.47L271.70 17.93L273.02 17.93Q273.75 17.93 274.12 17.61Q274.50 17.29 274.50 16.71L274.50 16.71Q274.50 16.12 274.12 15.80Q273.75 15.47 273.02 15.47L273.02 15.47L271.70 15.47ZM288.39 22L281.65 22L281.65 13.60L288.24 13.60L288.24 15.44L284.01 15.44L284.01 16.85L287.74 16.85L287.74 18.63L284.01 18.63L284.01 20.17L288.39 20.17L288.39 22ZM295.58 22L293.20 22L293.20 13.60L297.04 13.60Q298.19 13.60 299.02 13.98Q299.86 14.35 300.32 15.06Q300.78 15.76 300.78 16.71L300.78 16.71Q300.78 17.62 300.35 18.30Q299.92 18.98 299.13 19.36L299.13 19.36L300.94 22L298.40 22L296.87 19.77L295.58 19.77L295.58 22ZM295.58 15.47L295.58 17.93L296.90 17.93Q297.63 17.93 298.00 17.61Q298.37 17.29 298.37 16.71L298.37 16.71Q298.37 16.12 298.00 15.79Q297.63 15.47 296.90 15.47L296.90 15.47L295.58 15.47ZM308.80 19.46L305.30 19.46L305.30 17.71L308.80 17.71L308.80 19.46ZM316.06 22L313.70 22L313.70 13.60L316.06 13.60L316.06 17.09L319.31 13.60L321.92 13.60L318.49 17.32L322.10 22L319.34 22L316.94 18.95L316.06 19.90L316.06 22ZM332.95 22L326.21 22L326.21 13.60L332.80 13.60L332.80 15.44L328.57 15.44L328.57 16.85L332.30 16.85L332.30 18.63L328.57 18.63L328.57 20.17L332.95 20.17L332.95 22ZM340.14 22L337.76 22L337.76 13.60L341.60 13.60Q342.75 13.60 343.58 13.98Q344.42 14.35 344.88 15.06Q345.34 15.76 345.34 16.71L345.34 16.71Q345.34 17.62 344.91 18.30Q344.48 18.98 343.69 19.36L343.69 19.36L345.50 22L342.96 22L341.43 19.77L340.14 19.77L340.14 22ZM340.14 15.47L340.14 17.93L341.46 17.93Q342.19 17.93 342.56 17.61Q342.93 17.29 342.93 16.71L342.93 16.71Q342.93 16.12 342.56 15.79Q342.19 15.47 341.46 15.47L341.46 15.47L340.14 15.47ZM352.45 22L350.12 22L350.12 13.60L352.08 13.60L355.79 18.07L355.79 13.60L358.11 13.60L358.11 22L356.16 22L352.45 17.52L352.45 22ZM370.02 22L363.28 22L363.28 13.60L369.87 13.60L369.87 15.44L365.63 15.44L365.63 16.85L369.36 16.85L369.36 18.63L365.63 18.63L365.63 20.17L370.02 20.17L370.02 22ZM381.21 22L374.83 22L374.83 13.60L377.20 13.60L377.20 20.11L381.21 20.11L381.21 22ZM385.11 20.75L385.11 20.75Q385.11 20.15 385.50 19.78Q385.89 19.41 386.49 19.41L386.49 19.41Q387.08 19.41 387.47 19.78Q387.85 20.15 387.85 20.75L387.85 20.75Q387.85 21.34 387.46 21.72Q387.07 22.11 386.49 22.11L386.49 22.11Q385.91 22.11 385.51 21.72Q385.11 21.34 385.11 20.75ZM394.30 15.48L391.72 15.48L391.72 13.60L399.24 13.60L399.24 15.48L396.68 15.48L396.68 22L394.30 22L394.30 15.48ZM410.36 22L403.61 22L403.61 13.60L410.20 13.60L410.20 15.44L405.97 15.44L405.97 16.85L409.70 16.85L409.70 18.63L405.97 18.63L405.97 20.17L410.36 20.17L410.36 22ZM414.73 17.80L414.73 17.80Q414.73 16.54 415.33 15.54Q415.93 14.55 416.98 13.99Q418.03 13.43 419.35 13.43L419.35 13.43Q420.51 13.43 421.43 13.84Q422.35 14.25 422.97 15.02L422.97 15.02L421.45 16.39Q420.64 15.40 419.47 15.40L419.47 15.40Q418.79 15.40 418.26 15.70Q417.72 16 417.43 16.54Q417.13 17.09 417.13 17.80L417.13 17.80Q417.13 18.51 417.43 19.05Q417.72 19.60 418.26 19.90Q418.79 20.20 419.47 20.20L419.47 20.20Q420.64 20.20 421.45 19.22L421.45 19.22L422.97 20.58Q422.36 21.35 421.43 21.76Q420.51 22.17 419.35 22.17L419.35 22.17Q418.03 22.17 416.98 21.61Q415.93 21.05 415.33 20.05Q414.73 19.06 414.73 17.80ZM429.88 22L427.50 22L427.50 13.60L429.88 13.60L429.88 16.76L433.12 16.76L433.12 13.60L435.49 13.60L435.49 22L433.12 22L433.12 18.72L429.88 18.72L429.88 22Z" fill="#FFFFFF" x="105.22"/></svg>